<?xml version="1.0" encoding="utf-8" ?><svg xmlns="http://www.w3.org/2000/svg" xmlns:xlink="http://www.w3.org/1999/xlink" width="1024" height="1024" viewBox="0 0 1024 1024"><path fill="#F77A20" d="M428.468 257.233C432.462 255.281 445.026 252.583 449.549 251.586C494.885 241.922 541.979 244.54 585.965 259.17C594.582 262.119 623.175 273.448 629.991 278.533C636.879 281.802 644.427 287.186 650.901 291.544C695.567 321.806 729.607 365.325 748.221 415.964C750.268 421.71 752.446 430.231 754.517 435.338C748.101 431.195 742.209 428.596 735.732 424.941L727.259 420.826C721.089 417.942 714.38 414.947 708.444 411.711C695.63 386.687 686.973 371.994 667.743 351.201C627.54 307.955 571.789 282.473 512.78 280.371C452.326 278.011 393.466 300.085 349.471 341.616C305.46 385.582 279.967 439.839 279.499 502.767C279.373 519.696 281.77 540.367 286.547 556.592C284.422 562.883 280.864 570.207 278.224 576.519C276.974 579.451 275.801 582.361 274.32 585.183C273.106 590.253 268.065 598.505 266.48 605.153C259.671 588.895 255.656 578.176 251.303 561.115C235.651 499.769 246.175 428.878 278.885 374.697C306.949 328.209 347.866 290.06 397.917 268.298C406.67 264.492 419.212 259.469 428.468 257.233Z"/><path fill="#3D405B" d="M326.739 344.572C371.532 296.898 429.768 268.612 495.595 266.555C558.619 264.095 620.04 286.77 666.347 329.593C693.187 355.092 713.997 386.261 727.259 420.826C721.089 417.942 714.38 414.947 708.444 411.711C695.63 386.687 686.973 371.994 667.743 351.201C627.54 307.955 571.789 282.473 512.78 280.371C452.326 278.011 393.466 300.085 349.471 341.616C345.433 337.924 344.227 341.167 340.703 338.692C339.782 338.045 338.249 338.349 337.687 338.768C332.977 342.283 335.091 346.415 326.739 344.572Z"/><path fill="#3D405B" d="M428.468 257.233L429.367 257.697C430.839 257.319 436.017 255.801 437.142 256.02C434.082 258.103 428.349 258.153 422.133 262.956C425.401 262.37 428.774 261.595 432.084 261.364C437.138 261.011 456.09 261.836 458.988 260.497C460.576 259.763 463.527 260.205 465.277 260.436L465.615 260.966C461.741 263.699 446.613 264.561 446.092 266.824C432.385 270.673 420.617 274.107 407.362 279.726C357.216 301.216 315.597 338.708 289.007 386.347C258.361 440.96 250.568 505.48 267.328 565.82C268.767 570.908 271.908 580.703 274.32 585.183C273.106 590.253 268.065 598.505 266.48 605.153C259.671 588.895 255.656 578.176 251.303 561.115C235.651 499.769 246.175 428.878 278.885 374.697C306.949 328.209 347.866 290.06 397.917 268.298C406.67 264.492 419.212 259.469 428.468 257.233Z"/><path fill="#3D405B" d="M326.739 344.572C335.091 346.415 332.977 342.283 337.687 338.768C338.249 338.349 339.782 338.045 340.703 338.692C344.227 341.167 345.433 337.924 349.471 341.616C305.46 385.582 279.967 439.839 279.499 502.767C279.373 519.696 281.77 540.367 286.547 556.592C284.422 562.883 280.864 570.207 278.224 576.519C271.449 566 266.117 530.401 265.474 517.163C262.277 451.327 283.164 393.426 326.739 344.572Z"/><path fill="#3D405B" d="M629.991 278.533C636.879 281.802 644.427 287.186 650.901 291.544C695.567 321.806 729.607 365.325 748.221 415.964C750.268 421.71 752.446 430.231 754.517 435.338C748.101 431.195 742.209 428.596 735.732 424.941C730.331 410.703 725.659 399.371 718.235 385.943C694.019 342.598 657.343 307.525 612.959 285.271C613.249 284.56 613.525 284.122 613.897 283.453C617.75 281.999 622.446 282.467 626.509 282.68C628.123 282.03 629.009 280.102 629.991 278.533Z"/><path fill="#3D405B" d="M428.468 257.233C432.462 255.281 445.026 252.583 449.549 251.586C494.885 241.922 541.979 244.54 585.965 259.17C594.582 262.119 623.175 273.448 629.991 278.533C629.009 280.102 628.123 282.03 626.509 282.68C622.446 282.467 617.75 281.999 613.897 283.453C613.525 284.122 613.249 284.56 612.959 285.271C571.8 265.183 525.883 256.878 480.295 261.277C468.442 262.42 457.777 264.468 446.092 266.824C446.613 264.561 461.741 263.699 465.615 260.966L465.277 260.436C463.527 260.205 460.576 259.763 458.988 260.497C456.09 261.836 437.138 261.011 432.084 261.364C428.774 261.595 425.401 262.37 422.133 262.956C428.349 258.153 434.082 258.103 437.142 256.02C436.017 255.801 430.839 257.319 429.367 257.697L428.468 257.233Z"/><path fill="#3D405B" d="M436.358 421.757C437.607 423.176 438.219 429.579 438.615 431.846L443.819 460.85L468.151 602.458C454.141 602.097 440.124 602.118 426.115 602.519C424.663 593.285 422.523 579.829 421.838 570.724C415.101 570.536 407.194 570.907 400.314 570.894L356.539 570.624C354.188 576.321 350.946 582.762 348.272 588.359C346.053 593.268 343.762 598.144 341.399 602.986C327.359 602.319 312.085 602.572 297.924 602.593C301.637 596.073 306.142 585.784 309.565 578.773C319.153 559.17 328.524 539.462 337.676 519.652C352.644 487.643 369.628 454.302 383.58 421.927C401.176 421.704 418.706 422.082 436.358 421.757ZM374.024 533.535C378.071 533.683 382.072 533.86 386.125 533.801C396.008 533.615 405.893 533.529 415.778 533.546C412.886 518.02 410.867 502.043 408.022 486.475C407.398 483.061 405.711 470.45 404.54 467.775C400.657 474.542 396.815 483.073 393.459 490.216C386.727 504.54 380.248 518.982 374.024 533.535Z"/><path fill="#3D405B" d="M634.26 419.209C634.99 419.162 635.72 419.131 636.45 419.116C659.889 418.483 683.643 424.124 701.053 440.653C697.834 443.958 690.794 448.872 686.992 451.711C681.144 456.077 675.477 460.526 669.685 464.954C652.298 457.046 639.839 453.414 620.745 460.514C607.072 465.477 596.02 475.812 590.151 489.122C584.018 502.812 583.907 519.024 589.382 532.935C594.746 546.269 605.232 556.895 618.493 562.436C635.89 569.773 650.465 566.84 667.028 560.061C673.795 564.889 681.538 571.244 688.198 576.421C692.583 579.468 696.918 582.587 701.2 585.778C665.952 612.96 613.03 611.427 578.746 583.394C559.884 567.773 548.031 545.276 545.811 520.886C540.486 465.337 580.292 424.47 634.26 419.209Z"/><path fill="#3D405B" d="M492.982 422.624C501.708 422.71 512.87 422.989 521.47 422.518C521.564 430.364 521.869 439.402 521.445 447.136C519.182 449.698 516.875 452.221 514.526 454.705C514.348 460.816 514.355 466.931 514.544 473.042L515.656 472.134C516.968 468.522 516.472 459.442 516.405 455.239C519.292 452.606 521.327 450.811 523.817 447.829C523.917 445.829 523.906 443.568 523.945 441.542C525.983 442.438 526.248 442.749 528.004 444.2C528.15 448.49 527.943 453.363 527.856 457.698C528.946 459.312 530.394 461.533 531.675 463.022C533.346 465.074 541.753 470.05 541.397 472.997C540.693 478.836 531.9 490.337 528.52 494.462L528.51 510.81C519.099 521.262 522.517 522.908 531.551 531.416C534.099 533.815 537.348 537.301 539.327 540.166C539.656 545.875 539.459 553.513 539.466 559.362C546.649 565.675 544.85 574.821 534.569 572.579C532.462 572.119 531.585 569.081 530.834 567.061C527.977 576.154 532.121 596.494 527.707 601.652C526.112 602.097 526.867 602.163 525.369 601.438C523.432 598.404 524.005 590.786 523.978 586.785C521.38 584.351 515.055 579.014 514.579 575.701C516.617 573.009 521.266 576.551 526.326 575.071C529.572 572.12 526.6 568.318 524.549 565.567C524.138 558.87 524.369 551.978 524.003 545.141C519.013 539.356 512.163 534.389 507.055 528.31C506.621 522.66 506.754 517.927 506.843 512.27C509.642 509.621 512.426 506.956 515.195 504.277C515.282 500.225 515.36 493.329 514.665 489.487C513.51 495.249 513.581 497.913 513.787 503.859C511.279 506.235 508.31 508.764 505.701 511.096C505.257 515.904 505.459 524.6 505.431 529.776C510.47 535.252 516.558 540.401 521.956 546.325C522.152 553.128 522.057 560.312 522.134 567.144C522.15 568.584 522.076 568.233 520.965 569.211C522.95 570.214 524.665 569.526 525.387 572.139C522.843 576.151 514.053 570.712 512.224 575.988C513.017 580.151 518.351 584.376 520.841 588.427C521.257 592.738 521.088 597.244 521.029 601.588L513.731 601.469C513.895 598.446 513.761 596.373 513.586 593.359L505.529 585.252C505.209 575.681 505.497 563.923 505.503 554.2C500.152 548.843 495.739 544.919 490.022 540.029C490.056 535.32 490.638 524.855 489.199 521.091C487.829 522.477 487.984 537.398 487.932 540.614C492.751 545.504 498.114 550.12 503.092 555.13C503.583 565.215 503.437 576.205 503.485 586.363C506.211 588.906 508.17 590.837 510.678 593.586L511.316 601.526C505.135 602.25 494.083 601.939 487.5 601.93C487.709 593.713 488.406 567.06 487.443 559.965C483.566 555.876 478.551 551.259 474.434 547.293C474.617 534.045 474.222 520.521 474.304 507.253C474.781 503.426 471.785 500.612 472.013 496.857C472.46 489.503 479.671 491.855 484.156 492.735C486.248 487.707 484.538 470.95 484.565 464.893C484.577 462.246 480.849 460.303 478.86 458.322L478.522 457.981C477.375 449.268 468.68 437.876 485.991 439.867C486.122 435.414 484.57 425.573 487.877 422.85C489.83 422.79 489.247 422.425 490.383 423.284C490.836 425.498 490.87 433.797 491.038 436.729C493.689 439.876 495.58 442.037 498.873 444.504C500.257 455.244 499.323 478.927 498.869 490.314C501.561 492.416 502.732 492.829 505.842 494.207C503.931 492.472 502.617 490.983 500.912 489.078C500.936 474.645 501.419 458.788 500.915 444.528C498.425 441.263 496.838 439.875 493.785 437.069C492.18 434.009 493.032 426.511 492.982 422.624ZM514.349 477.027L512.754 477.777C510.902 477.634 511.561 477.783 509.898 476.298C509.411 472.552 509.569 466.306 509.55 462.296L509.556 436.611C521.542 426.282 506.014 423.938 503.324 429.457C503.487 431.546 503.38 430.842 504.665 432.765C505.999 433.603 506.81 434.23 507.047 436.124C508.331 446.384 507.643 457.631 507.713 467.969C507.754 473.995 508.306 480.054 507.983 485.863L507.84 485.631C509.339 486.924 508.641 486.818 510.151 486.964C511.612 484.501 509.464 481.84 510.725 480.539C512.989 480.28 512.888 480.65 514.407 479.467C514.758 477.76 514.843 478.541 514.349 477.027ZM478.017 502.921L477.946 544.035C484.249 549.68 490.517 555.571 496.09 561.941C496.234 570.852 496.45 579.541 496.124 588.455C491.243 593.981 494.774 599.408 500.395 596.685C502.989 592.572 501.959 591.754 498.783 588.491C498.65 579.411 499.007 570.373 499.015 561.295C493.038 554.896 486.43 549.527 480.488 543.064C480.641 534.099 479.323 509.313 481.705 502.623C482.267 501.046 483.553 498.39 482.835 496.841C482.285 495.655 481.173 494.991 479.938 494.731C479.094 494.554 478.216 494.489 477.357 494.417C474.439 498.566 474.84 498.963 478.017 502.921ZM532.558 478.766C528.639 483.702 526.913 485.889 521.77 489.394C521.533 495.21 521.46 501.031 521.55 506.852C519.416 508.91 515.753 512.252 513.914 514.373L513.924 524.19C518.958 529.083 526.562 535.646 530.513 540.993C530.586 548.598 530.331 559.009 530.757 566.449C535.059 570.173 538.072 572.551 541.71 566.316C539.085 561.159 537.319 561.089 532.751 564.254C533.723 555.267 533.554 548.67 533.336 539.68C528.083 534.645 520.92 528.315 516.088 523.158C515.974 520.715 515.814 518.161 515.752 515.727C518.406 511.658 519.281 510.176 523.521 507.888L523.606 490.656C527.054 487.082 537.186 477.705 537.324 472.741C537.35 471.806 536.945 471.607 536.327 470.757C534.721 470.013 534.449 469.776 532.64 469.82C529.44 473.878 529.843 474.582 532.558 478.766ZM497.492 506.325C498.113 516.146 497.518 524.503 496.904 534.356C499.153 538.043 509.187 546.422 512.773 550.288C512.452 554.133 511.86 569.153 513.259 572.061C514.133 572.385 513.972 572.398 514.878 572.485C514.977 565.089 515.228 557.066 514.956 549.726C510.427 545.183 503.598 538.867 499.554 534.307C499.474 525.177 499.466 516.046 499.532 506.917C501.915 504.619 503.29 503.881 503.382 500.554C502.06 498.102 500.107 497.929 497.433 497.916C492.48 500.839 493.782 503.394 497.492 506.325ZM523.791 477.08C521.596 482.514 516.528 483.549 515.099 488.482C516.647 488.548 524.277 480.037 525.802 478.441C525.954 475.949 525.905 473.028 525.925 470.5C527.342 468.788 529.588 466.663 528.75 464.208C528.374 463.118 527.492 462.279 526.385 461.959C524.095 461.272 521.218 463.443 521.808 465.285C523.209 469.658 523.565 472.541 523.791 477.08ZM482.517 451.399C484.764 449.494 486.377 447.898 485.079 444.742C483.612 443.203 483.108 443.02 480.889 442.823C478.476 444.931 477.4 446.974 479.228 450.09C480.732 451.28 480.605 451.226 482.517 451.399ZM487.237 451.986C483.183 456.272 484.922 458.572 488.801 461.88C488.642 472.428 488.632 482.977 488.77 493.526C488.8 497.38 489.129 504.282 488.969 507.857C484.658 511.966 480.896 518.278 489.888 519.672L491.226 519.017C498.778 511.477 490.563 511.687 490.086 505.122C489.697 499.757 489.947 493.205 490.003 487.696C490.078 478.817 490.08 469.938 490.009 461.06L490.57 460.967C498.289 459.635 496.55 451.183 487.237 451.986Z"/><path fill="#3D405B" d="M508.678 428.063C510.197 428.094 511.419 429.323 511.44 430.843C511.461 432.362 510.273 433.625 508.755 433.696C507.726 433.745 506.754 433.229 506.217 432.35C505.68 431.472 505.665 430.371 506.178 429.478C506.69 428.585 507.648 428.043 508.678 428.063Z"/><path fill="#3D405B" d="M492.982 422.624C501.708 422.71 512.87 422.989 521.47 422.518C521.564 430.364 521.869 439.402 521.445 447.136C519.182 449.698 516.875 452.221 514.526 454.705C514.348 460.816 514.355 466.931 514.544 473.042C514.291 474.675 513.813 475.759 514.349 477.027L512.754 477.777C510.902 477.634 511.561 477.783 509.898 476.298C509.411 472.552 509.569 466.306 509.55 462.296L509.556 436.611C521.542 426.282 506.014 423.938 503.324 429.457C503.487 431.546 503.38 430.842 504.665 432.765L504.391 433.275L505.286 434.744C504.479 436.388 505.058 435.718 503.362 436.705C499.177 436.77 497.48 434.672 493.785 437.069C492.18 434.009 493.032 426.511 492.982 422.624Z"/><path fill="#646464" fill-opacity="0.0078431377" d="M532.64 469.82C534.449 469.776 534.721 470.013 536.327 470.757C536.945 471.607 537.35 471.806 537.324 472.741C537.186 477.705 527.054 487.082 523.606 490.656L523.521 507.888C519.281 510.176 518.406 511.658 515.752 515.727C515.814 518.161 515.974 520.715 516.088 523.158C520.92 528.315 528.083 534.645 533.336 539.68C533.554 548.67 533.723 555.267 532.751 564.254C537.319 561.089 539.085 561.159 541.71 566.316C538.072 572.551 535.059 570.173 530.757 566.449C530.331 559.009 530.586 548.598 530.513 540.993C526.562 535.646 518.958 529.083 513.924 524.19L513.914 514.373C515.753 512.252 519.416 508.91 521.55 506.852C521.46 501.031 521.533 495.21 521.77 489.394C526.913 485.889 528.639 483.702 532.558 478.766C529.843 474.582 529.44 473.878 532.64 469.82Z"/><path fill="#646464" fill-opacity="0.0078431377" d="M487.237 451.986C496.55 451.183 498.289 459.635 490.57 460.967L490.009 461.06C490.08 469.938 490.078 478.817 490.003 487.696C489.947 493.205 489.697 499.757 490.086 505.122C490.563 511.687 498.778 511.477 491.226 519.017L489.888 519.672C480.896 518.278 484.658 511.966 488.969 507.857C489.129 504.282 488.8 497.38 488.77 493.526C488.632 482.977 488.642 472.428 488.801 461.88C484.922 458.572 483.183 456.272 487.237 451.986Z"/><path fill="#3D405B" d="M488.788 510.127C493.027 511.897 492.831 514.084 490.869 517.516C488.018 516.959 487.118 516.998 486.447 514.073C486.885 511.977 487.272 511.785 488.788 510.127Z"/><path fill="#3D405B" d="M489.475 454.042C490.895 453.599 492.409 454.373 492.881 455.783C493.354 457.193 492.612 458.723 491.212 459.225C490.28 459.56 489.239 459.364 488.492 458.713C487.746 458.062 487.409 457.059 487.613 456.089C487.817 455.12 488.529 454.336 489.475 454.042Z"/><path fill="#646464" fill-opacity="0.0078431377" d="M523.791 477.08C525.485 477.489 524.847 477.035 525.802 478.441C524.277 480.037 516.647 488.548 515.099 488.482C516.528 483.549 521.596 482.514 523.791 477.08Z"/><path fill="#3D405B" d="M690.975 464.195C697.813 463.409 704.737 464.47 711.026 467.268C721.477 471.955 728.616 480.6 730.193 492.312C730.709 496.148 729.911 502.117 731.181 505.811C733.4 512.268 737.047 517.278 739.529 523.908C735.904 524.896 734.51 525.258 730.786 525.638C730.774 526.026 730.757 526.415 730.735 526.803C730.418 532.568 729.452 538.826 728.414 544.252C726.489 554.322 720.776 552.539 712.888 551.59C702.979 550.398 703.252 560.66 702.976 568.215C690.414 568.108 683.159 561.945 673.239 554.387C668.407 551.002 670.145 548.956 669.593 543.041C669.03 537.02 668.001 532.472 666.162 526.73C669.087 528.671 673.755 532.157 676.98 532.961C708.383 540.799 721.462 494.154 689.871 485.794C681.498 483.578 675.082 486.19 668.015 490.616C666.512 487.473 664.286 484.607 662.253 481.76C669.368 470.527 678.168 465.846 690.975 464.195Z"/><path fill="#3D405B" d="M728.84 456.255C730.697 456.298 732.552 456.401 734.402 456.561C751.653 458.137 768.95 469.55 770.284 488.257C770.624 493.026 769.465 497.804 771.009 502.498C772.728 507.723 780.501 516.55 779.929 521.871C778.262 524.095 773.968 524.291 771.171 524.707C770.375 531.226 769.246 548.92 765.167 550.957C753.68 556.693 742.649 542.51 743.008 568.068L726.875 568.075L708.929 567.962L709.008 557.701C717.634 557.163 724.258 558.558 731.439 553.367C735.138 545.07 733.724 539.009 735.884 530.588C755.302 524.351 737.51 514.365 736.851 505.747C735.034 482 733.716 472.404 709.538 460.473C716.735 457.786 721.203 456.83 728.84 456.255Z"/><path fill="#3D405B" d="M630.2 474.074C633.617 473.848 637.538 473.983 641.002 474.023C641.275 481.986 641.821 483.718 649.482 486.079C657.288 480.671 659.286 483.871 664.471 490.462C659.509 494.862 660.269 496.046 661.292 502.327C657.5 503.015 655.767 503.056 651.887 503.13C649.679 499.897 648.109 497.417 644.703 495.25C640.544 492.586 635.485 491.713 630.673 492.828C625.63 493.955 621.284 497.133 618.683 501.598C607.699 520.591 638.335 543.261 652.15 517.224C654.305 517.033 656.462 516.864 658.62 516.719C660.356 516.611 661.291 516.524 662.611 517.698C662.59 519.598 662.318 519.347 661.093 521.259C658.872 524.674 661.762 528.238 663.457 531.408C661.396 534.841 659.51 536.777 656.343 539.106C647.115 532.505 642.057 533.436 641.312 545.522L629.627 545.498C627.034 535.314 624.227 531.88 614.504 538.876C607.045 534.045 606.554 532.886 610.901 525.313C609.651 522.389 608.754 519.989 606.931 517.37L599.601 516.004C599.531 512.22 599.693 508.894 599.882 505.111C607.702 502.92 607.481 503.068 610.809 495.683C609.56 493.739 607.72 491.423 606.306 489.535C609.327 486.035 611.026 484.497 614.922 482.17C617.039 483.434 618.885 484.933 620.843 486.432C631.293 482.77 625.927 481.553 630.2 474.074Z"/><path fill="#3D405B" d="M681.764 489.924C689.051 489.494 684.917 492.434 690.062 494.543C692.187 495.414 696.657 493.347 699.326 495.638C700.77 498.578 699.431 501.28 698.462 504.441C700.981 505.643 702.97 506.168 704.251 508.548C703.938 511.694 699.655 513.768 697.315 517.129C698.733 519.403 700.509 520.666 699.12 523.275C696.752 524.388 693.315 523.038 690.627 523.997C687.273 525.193 687.692 528.256 684.148 529.245C681.038 528.388 679.411 525.827 677.529 523.344C674.469 524.075 669.368 525.44 667.648 522.004C667.931 518.858 669.622 519.193 669.53 516.88C668.026 515.132 666.656 514.396 664.74 513.134C660.428 512.765 656.694 512.594 652.364 512.482L647.043 512.544C644.672 516.839 639.468 523.286 633.713 521.859C619.815 518.412 621.874 495.582 638.277 499.538C642.479 500.552 644.71 503.891 646.689 507.387C652.15 507.23 660.243 507.942 665.137 505.872C671.238 503.293 666.342 500.393 668.156 496.071C674.147 491.176 674.768 499.155 681.764 489.924ZM687.243 517.774C691.947 516.115 694.479 511.017 692.96 506.266C691.441 501.515 686.42 498.833 681.626 500.21C678.396 501.139 675.927 503.75 675.18 507.027C674.434 510.304 675.529 513.728 678.038 515.963C680.547 518.199 684.074 518.893 687.243 517.774ZM637.736 516.783C641.447 515.518 643.436 511.49 642.185 507.775C640.934 504.06 636.913 502.056 633.193 503.294C629.454 504.538 627.438 508.583 628.695 512.318C629.953 516.052 634.006 518.054 637.736 516.783Z"/><path fill="#3D405B" d="M523.945 441.542C523.856 437.371 523.042 426.174 524.754 422.933C526.093 422.274 525.373 422.5 527.186 422.819C528.744 424.91 528.034 440.275 528.004 444.2C526.248 442.749 525.983 442.438 523.945 441.542Z"/></svg>
